<svg class="rich-terminal" viewBox="0 0 994 464.79999999999995" xmlns="http://www.w3.org/2000/svg">
    <!-- Generated with Rich https://www.textualize.io -->
    <style>

    @font-face {
        font-family: "Fira Code";
        src: local("FiraCode-Regular"),
                url("https://cdnjs.cloudflare.com/ajax/libs/firacode/6.2.0/woff2/FiraCode-Regular.woff2") format("woff2"),
                url("https://cdnjs.cloudflare.com/ajax/libs/firacode/6.2.0/woff/FiraCode-Regular.woff") format("woff");
        font-style: normal;
        font-weight: 400;
    }
    @font-face {
        font-family: "Fira Code";
        src: local("FiraCode-Bold"),
                url("https://cdnjs.cloudflare.com/ajax/libs/firacode/6.2.0/woff2/FiraCode-Bold.woff2") format("woff2"),
                url("https://cdnjs.cloudflare.com/ajax/libs/firacode/6.2.0/woff/FiraCode-Bold.woff") format("woff");
        font-style: bold;
        font-weight: 700;
    }

    .terminal-2709800100-matrix {
        font-family: Fira Code, monospace;
        font-size: 20px;
        line-height: 24.4px;
        font-variant-east-asian: full-width;
    }

    .terminal-2709800100-title {
        font-size: 18px;
        font-weight: bold;
        font-family: arial;
    }

    .terminal-2709800100-r1 { fill: #68a0b3;font-weight: bold }
.terminal-2709800100-r2 { fill: #c5c8c6 }
.terminal-2709800100-r3 { fill: #858884 }
.terminal-2709800100-r4 { fill: #66d9ef }
.terminal-2709800100-r5 { fill: #f8f8f2 }
.terminal-2709800100-r6 { fill: #a6e22e }
.terminal-2709800100-r7 { fill: #e6db74 }
.terminal-2709800100-r8 { fill: #ff4689 }
.terminal-2709800100-r9 { fill: #cc555a }
.terminal-2709800100-r10 { fill: #ae81ff }
    </style>

    <defs>
    <clipPath id="terminal-2709800100-clip-terminal">
      <rect x="0" y="0" width="975.0" height="413.79999999999995" />
    </clipPath>
    <clipPath id="terminal-2709800100-line-0">
    <rect x="0" y="1.5" width="976" height="24.65"/>
            </clipPath>
<clipPath id="terminal-2709800100-line-1">
    <rect x="0" y="25.9" width="976" height="24.65"/>
            </clipPath>
<clipPath id="terminal-2709800100-line-2">
    <rect x="0" y="50.3" width="976" height="24.65"/>
            </clipPath>
<clipPath id="terminal-2709800100-line-3">
    <rect x="0" y="74.7" width="976" height="24.65"/>
            </clipPath>
<clipPath id="terminal-2709800100-line-4">
    <rect x="0" y="99.1" width="976" height="24.65"/>
            </clipPath>
<clipPath id="terminal-2709800100-line-5">
    <rect x="0" y="123.5" width="976" height="24.65"/>
            </clipPath>
<clipPath id="terminal-2709800100-line-6">
    <rect x="0" y="147.9" width="976" height="24.65"/>
            </clipPath>
<clipPath id="terminal-2709800100-line-7">
    <rect x="0" y="172.3" width="976" height="24.65"/>
            </clipPath>
<clipPath id="terminal-2709800100-line-8">
    <rect x="0" y="196.7" width="976" height="24.65"/>
            </clipPath>
<clipPath id="terminal-2709800100-line-9">
    <rect x="0" y="221.1" width="976" height="24.65"/>
            </clipPath>
<clipPath id="terminal-2709800100-line-10">
    <rect x="0" y="245.5" width="976" height="24.65"/>
            </clipPath>
<clipPath id="terminal-2709800100-line-11">
    <rect x="0" y="269.9" width="976" height="24.65"/>
            </clipPath>
<clipPath id="terminal-2709800100-line-12">
    <rect x="0" y="294.3" width="976" height="24.65"/>
            </clipPath>
<clipPath id="terminal-2709800100-line-13">
    <rect x="0" y="318.7" width="976" height="24.65"/>
            </clipPath>
<clipPath id="terminal-2709800100-line-14">
    <rect x="0" y="343.1" width="976" height="24.65"/>
            </clipPath>
<clipPath id="terminal-2709800100-line-15">
    <rect x="0" y="367.5" width="976" height="24.65"/>
            </clipPath>
    </defs>

    <rect fill="#292929" stroke="rgba(255,255,255,0.35)" stroke-width="1" x="1" y="1" width="992" height="462.8" rx="8"/><text class="terminal-2709800100-title" fill="#c5c8c6" text-anchor="middle" x="496" y="27">pdbr&#160;syntax</text>
            <g transform="translate(26,22)">
            <circle cx="0" cy="0" r="7" fill="#ff5f57"/>
            <circle cx="22" cy="0" r="7" fill="#febc2e"/>
            <circle cx="44" cy="0" r="7" fill="#28c840"/>
            </g>

    <g transform="translate(9, 41)" clip-path="url(#terminal-2709800100-clip-terminal)">
    <rect fill="#272822" x="0" y="50.3" width="24.4" height="24.65" shape-rendering="crispEdges"/><rect fill="#272822" x="24.4" y="50.3" width="36.6" height="24.65" shape-rendering="crispEdges"/><rect fill="#272822" x="61" y="50.3" width="36.6" height="24.65" shape-rendering="crispEdges"/><rect fill="#272822" x="97.6" y="50.3" width="12.2" height="24.65" shape-rendering="crispEdges"/><rect fill="#272822" x="109.8" y="50.3" width="134.2" height="24.65" shape-rendering="crispEdges"/><rect fill="#272822" x="244" y="50.3" width="12.2" height="24.65" shape-rendering="crispEdges"/><rect fill="#272822" x="256.2" y="50.3" width="61" height="24.65" shape-rendering="crispEdges"/><rect fill="#272822" x="317.2" y="50.3" width="12.2" height="24.65" shape-rendering="crispEdges"/><rect fill="#272822" x="329.4" y="50.3" width="12.2" height="24.65" shape-rendering="crispEdges"/><rect fill="#272822" x="341.6" y="50.3" width="634.4" height="24.65" shape-rendering="crispEdges"/><rect fill="#272822" x="0" y="74.7" width="24.4" height="24.65" shape-rendering="crispEdges"/><rect fill="#272822" x="24.4" y="74.7" width="36.6" height="24.65" shape-rendering="crispEdges"/><rect fill="#272822" x="61" y="74.7" width="48.8" height="24.65" shape-rendering="crispEdges"/><rect fill="#272822" x="109.8" y="74.7" width="756.4" height="24.65" shape-rendering="crispEdges"/><rect fill="#272822" x="866.2" y="74.7" width="109.8" height="24.65" shape-rendering="crispEdges"/><rect fill="#272822" x="0" y="99.1" width="24.4" height="24.65" shape-rendering="crispEdges"/><rect fill="#272822" x="24.4" y="99.1" width="36.6" height="24.65" shape-rendering="crispEdges"/><rect fill="#272822" x="61" y="99.1" width="48.8" height="24.65" shape-rendering="crispEdges"/><rect fill="#272822" x="109.8" y="99.1" width="48.8" height="24.65" shape-rendering="crispEdges"/><rect fill="#272822" x="158.6" y="99.1" width="12.2" height="24.65" shape-rendering="crispEdges"/><rect fill="#272822" x="170.8" y="99.1" width="12.2" height="24.65" shape-rendering="crispEdges"/><rect fill="#272822" x="183" y="99.1" width="12.2" height="24.65" shape-rendering="crispEdges"/><rect fill="#272822" x="195.2" y="99.1" width="109.8" height="24.65" shape-rendering="crispEdges"/><rect fill="#272822" x="305" y="99.1" width="12.2" height="24.65" shape-rendering="crispEdges"/><rect fill="#272822" x="317.2" y="99.1" width="36.6" height="24.65" shape-rendering="crispEdges"/><rect fill="#272822" x="353.8" y="99.1" width="12.2" height="24.65" shape-rendering="crispEdges"/><rect fill="#272822" x="366" y="99.1" width="61" height="24.65" shape-rendering="crispEdges"/><rect fill="#272822" x="427" y="99.1" width="12.2" height="24.65" shape-rendering="crispEdges"/><rect fill="#272822" x="439.2" y="99.1" width="97.6" height="24.65" shape-rendering="crispEdges"/><rect fill="#272822" x="536.8" y="99.1" width="12.2" height="24.65" shape-rendering="crispEdges"/><rect fill="#272822" x="549" y="99.1" width="12.2" height="24.65" shape-rendering="crispEdges"/><rect fill="#272822" x="561.2" y="99.1" width="146.4" height="24.65" shape-rendering="crispEdges"/><rect fill="#272822" x="707.6" y="99.1" width="12.2" height="24.65" shape-rendering="crispEdges"/><rect fill="#272822" x="719.8" y="99.1" width="256.2" height="24.65" shape-rendering="crispEdges"/><rect fill="#272822" x="0" y="123.5" width="24.4" height="24.65" shape-rendering="crispEdges"/><rect fill="#272822" x="24.4" y="123.5" width="36.6" height="24.65" shape-rendering="crispEdges"/><rect fill="#272822" x="61" y="123.5" width="48.8" height="24.65" shape-rendering="crispEdges"/><rect fill="#272822" x="109.8" y="123.5" width="24.4" height="24.65" shape-rendering="crispEdges"/><rect fill="#272822" x="134.2" y="123.5" width="12.2" height="24.65" shape-rendering="crispEdges"/><rect fill="#272822" x="146.4" y="123.5" width="61" height="24.65" shape-rendering="crispEdges"/><rect fill="#272822" x="207.4" y="123.5" width="12.2" height="24.65" shape-rendering="crispEdges"/><rect fill="#272822" x="219.6" y="123.5" width="109.8" height="24.65" shape-rendering="crispEdges"/><rect fill="#272822" x="329.4" y="123.5" width="12.2" height="24.65" shape-rendering="crispEdges"/><rect fill="#272822" x="341.6" y="123.5" width="24.4" height="24.65" shape-rendering="crispEdges"/><rect fill="#272822" x="366" y="123.5" width="12.2" height="24.65" shape-rendering="crispEdges"/><rect fill="#272822" x="378.2" y="123.5" width="36.6" height="24.65" shape-rendering="crispEdges"/><rect fill="#272822" x="414.8" y="123.5" width="12.2" height="24.65" shape-rendering="crispEdges"/><rect fill="#272822" x="427" y="123.5" width="48.8" height="24.65" shape-rendering="crispEdges"/><rect fill="#272822" x="475.8" y="123.5" width="12.2" height="24.65" shape-rendering="crispEdges"/><rect fill="#272822" x="488" y="123.5" width="488" height="24.65" shape-rendering="crispEdges"/><rect fill="#272822" x="24.4" y="147.9" width="36.6" height="24.65" shape-rendering="crispEdges"/><rect fill="#272822" x="61" y="147.9" width="97.6" height="24.65" shape-rendering="crispEdges"/><rect fill="#272822" x="158.6" y="147.9" width="73.2" height="24.65" shape-rendering="crispEdges"/><rect fill="#272822" x="231.8" y="147.9" width="12.2" height="24.65" shape-rendering="crispEdges"/><rect fill="#272822" x="244" y="147.9" width="36.6" height="24.65" shape-rendering="crispEdges"/><rect fill="#272822" x="280.6" y="147.9" width="695.4" height="24.65" shape-rendering="crispEdges"/><rect fill="#272822" x="0" y="172.3" width="24.4" height="24.65" shape-rendering="crispEdges"/><rect fill="#272822" x="24.4" y="172.3" width="36.6" height="24.65" shape-rendering="crispEdges"/><rect fill="#272822" x="61" y="172.3" width="48.8" height="24.65" shape-rendering="crispEdges"/><rect fill="#272822" x="109.8" y="172.3" width="73.2" height="24.65" shape-rendering="crispEdges"/><rect fill="#272822" x="183" y="172.3" width="12.2" height="24.65" shape-rendering="crispEdges"/><rect fill="#272822" x="195.2" y="172.3" width="61" height="24.65" shape-rendering="crispEdges"/><rect fill="#272822" x="256.2" y="172.3" width="12.2" height="24.65" shape-rendering="crispEdges"/><rect fill="#272822" x="268.4" y="172.3" width="61" height="24.65" shape-rendering="crispEdges"/><rect fill="#272822" x="329.4" y="172.3" width="12.2" height="24.65" shape-rendering="crispEdges"/><rect fill="#272822" x="341.6" y="172.3" width="12.2" height="24.65" shape-rendering="crispEdges"/><rect fill="#272822" x="353.8" y="172.3" width="12.2" height="24.65" shape-rendering="crispEdges"/><rect fill="#272822" x="366" y="172.3" width="48.8" height="24.65" shape-rendering="crispEdges"/><rect fill="#272822" x="414.8" y="172.3" width="561.2" height="24.65" shape-rendering="crispEdges"/><rect fill="#272822" x="0" y="196.7" width="24.4" height="24.65" shape-rendering="crispEdges"/><rect fill="#272822" x="24.4" y="196.7" width="36.6" height="24.65" shape-rendering="crispEdges"/><rect fill="#272822" x="61" y="196.7" width="915" height="24.65" shape-rendering="crispEdges"/><rect fill="#272822" x="0" y="221.1" width="24.4" height="24.65" shape-rendering="crispEdges"/><rect fill="#272822" x="24.4" y="221.1" width="36.6" height="24.65" shape-rendering="crispEdges"/><rect fill="#272822" x="61" y="221.1" width="915" height="24.65" shape-rendering="crispEdges"/><rect fill="#272822" x="0" y="245.5" width="24.4" height="24.65" shape-rendering="crispEdges"/><rect fill="#272822" x="24.4" y="245.5" width="36.6" height="24.65" shape-rendering="crispEdges"/><rect fill="#272822" x="61" y="245.5" width="36.6" height="24.65" shape-rendering="crispEdges"/><rect fill="#272822" x="97.6" y="245.5" width="12.2" height="24.65" shape-rendering="crispEdges"/><rect fill="#272822" x="109.8" y="245.5" width="170.8" height="24.65" shape-rendering="crispEdges"/><rect fill="#272822" x="280.6" y="245.5" width="12.2" height="24.65" shape-rendering="crispEdges"/><rect fill="#272822" x="292.8" y="245.5" width="61" height="24.65" shape-rendering="crispEdges"/><rect fill="#272822" x="353.8" y="245.5" width="12.2" height="24.65" shape-rendering="crispEdges"/><rect fill="#272822" x="366" y="245.5" width="12.2" height="24.65" shape-rendering="crispEdges"/><rect fill="#272822" x="378.2" y="245.5" width="48.8" height="24.65" shape-rendering="crispEdges"/><rect fill="#272822" x="427" y="245.5" width="12.2" height="24.65" shape-rendering="crispEdges"/><rect fill="#272822" x="439.2" y="245.5" width="12.2" height="24.65" shape-rendering="crispEdges"/><rect fill="#272822" x="451.4" y="245.5" width="524.6" height="24.65" shape-rendering="crispEdges"/><rect fill="#272822" x="0" y="269.9" width="24.4" height="24.65" shape-rendering="crispEdges"/><rect fill="#272822" x="24.4" y="269.9" width="36.6" height="24.65" shape-rendering="crispEdges"/><rect fill="#272822" x="61" y="269.9" width="48.8" height="24.65" shape-rendering="crispEdges"/><rect fill="#272822" x="109.8" y="269.9" width="97.6" height="24.65" shape-rendering="crispEdges"/><rect fill="#272822" x="207.4" y="269.9" width="12.2" height="24.65" shape-rendering="crispEdges"/><rect fill="#272822" x="219.6" y="269.9" width="12.2" height="24.65" shape-rendering="crispEdges"/><rect fill="#272822" x="231.8" y="269.9" width="12.2" height="24.65" shape-rendering="crispEdges"/><rect fill="#272822" x="244" y="269.9" width="170.8" height="24.65" shape-rendering="crispEdges"/><rect fill="#272822" x="414.8" y="269.9" width="12.2" height="24.65" shape-rendering="crispEdges"/><rect fill="#272822" x="427" y="269.9" width="36.6" height="24.65" shape-rendering="crispEdges"/><rect fill="#272822" x="463.6" y="269.9" width="12.2" height="24.65" shape-rendering="crispEdges"/><rect fill="#272822" x="475.8" y="269.9" width="48.8" height="24.65" shape-rendering="crispEdges"/><rect fill="#272822" x="524.6" y="269.9" width="12.2" height="24.65" shape-rendering="crispEdges"/><rect fill="#272822" x="536.8" y="269.9" width="439.2" height="24.65" shape-rendering="crispEdges"/><rect fill="#272822" x="0" y="294.3" width="24.4" height="24.65" shape-rendering="crispEdges"/><rect fill="#272822" x="24.4" y="294.3" width="36.6" height="24.65" shape-rendering="crispEdges"/><rect fill="#272822" x="61" y="294.3" width="48.8" height="24.65" shape-rendering="crispEdges"/><rect fill="#272822" x="109.8" y="294.3" width="24.4" height="24.65" shape-rendering="crispEdges"/><rect fill="#272822" x="134.2" y="294.3" width="12.2" height="24.65" shape-rendering="crispEdges"/><rect fill="#272822" x="146.4" y="294.3" width="97.6" height="24.65" shape-rendering="crispEdges"/><rect fill="#272822" x="244" y="294.3" width="12.2" height="24.65" shape-rendering="crispEdges"/><rect fill="#272822" x="256.2" y="294.3" width="24.4" height="24.65" shape-rendering="crispEdges"/><rect fill="#272822" x="280.6" y="294.3" width="12.2" height="24.65" shape-rendering="crispEdges"/><rect fill="#272822" x="292.8" y="294.3" width="48.8" height="24.65" shape-rendering="crispEdges"/><rect fill="#272822" x="341.6" y="294.3" width="12.2" height="24.65" shape-rendering="crispEdges"/><rect fill="#272822" x="353.8" y="294.3" width="622.2" height="24.65" shape-rendering="crispEdges"/><rect fill="#272822" x="0" y="318.7" width="24.4" height="24.65" shape-rendering="crispEdges"/><rect fill="#272822" x="24.4" y="318.7" width="36.6" height="24.65" shape-rendering="crispEdges"/><rect fill="#272822" x="61" y="318.7" width="97.6" height="24.65" shape-rendering="crispEdges"/><rect fill="#272822" x="158.6" y="318.7" width="61" height="24.65" shape-rendering="crispEdges"/><rect fill="#272822" x="219.6" y="318.7" width="12.2" height="24.65" shape-rendering="crispEdges"/><rect fill="#272822" x="231.8" y="318.7" width="231.8" height="24.65" shape-rendering="crispEdges"/><rect fill="#272822" x="463.6" y="318.7" width="12.2" height="24.65" shape-rendering="crispEdges"/><rect fill="#272822" x="475.8" y="318.7" width="48.8" height="24.65" shape-rendering="crispEdges"/><rect fill="#272822" x="524.6" y="318.7" width="12.2" height="24.65" shape-rendering="crispEdges"/><rect fill="#272822" x="536.8" y="318.7" width="439.2" height="24.65" shape-rendering="crispEdges"/><rect fill="#272822" x="0" y="343.1" width="24.4" height="24.65" shape-rendering="crispEdges"/><rect fill="#272822" x="24.4" y="343.1" width="36.6" height="24.65" shape-rendering="crispEdges"/><rect fill="#272822" x="61" y="343.1" width="48.8" height="24.65" shape-rendering="crispEdges"/><rect fill="#272822" x="109.8" y="343.1" width="61" height="24.65" shape-rendering="crispEdges"/><rect fill="#272822" x="170.8" y="343.1" width="12.2" height="24.65" shape-rendering="crispEdges"/><rect fill="#272822" x="183" y="343.1" width="61" height="24.65" shape-rendering="crispEdges"/><rect fill="#272822" x="244" y="343.1" width="12.2" height="24.65" shape-rendering="crispEdges"/><rect fill="#272822" x="256.2" y="343.1" width="12.2" height="24.65" shape-rendering="crispEdges"/><rect fill="#272822" x="268.4" y="343.1" width="12.2" height="24.65" shape-rendering="crispEdges"/><rect fill="#272822" x="280.6" y="343.1" width="12.2" height="24.65" shape-rendering="crispEdges"/><rect fill="#272822" x="292.8" y="343.1" width="61" height="24.65" shape-rendering="crispEdges"/><rect fill="#272822" x="353.8" y="343.1" width="12.2" height="24.65" shape-rendering="crispEdges"/><rect fill="#272822" x="366" y="343.1" width="61" height="24.65" shape-rendering="crispEdges"/><rect fill="#272822" x="427" y="343.1" width="12.2" height="24.65" shape-rendering="crispEdges"/><rect fill="#272822" x="439.2" y="343.1" width="12.2" height="24.65" shape-rendering="crispEdges"/><rect fill="#272822" x="451.4" y="343.1" width="12.2" height="24.65" shape-rendering="crispEdges"/><rect fill="#272822" x="463.6" y="343.1" width="97.6" height="24.65" shape-rendering="crispEdges"/><rect fill="#272822" x="561.2" y="343.1" width="12.2" height="24.65" shape-rendering="crispEdges"/><rect fill="#272822" x="573.4" y="343.1" width="122" height="24.65" shape-rendering="crispEdges"/><rect fill="#272822" x="695.4" y="343.1" width="280.6" height="24.65" shape-rendering="crispEdges"/><rect fill="#272822" x="0" y="367.5" width="24.4" height="24.65" shape-rendering="crispEdges"/><rect fill="#272822" x="24.4" y="367.5" width="36.6" height="24.65" shape-rendering="crispEdges"/><rect fill="#272822" x="61" y="367.5" width="48.8" height="24.65" shape-rendering="crispEdges"/><rect fill="#272822" x="109.8" y="367.5" width="61" height="24.65" shape-rendering="crispEdges"/><rect fill="#272822" x="170.8" y="367.5" width="12.2" height="24.65" shape-rendering="crispEdges"/><rect fill="#272822" x="183" y="367.5" width="207.4" height="24.65" shape-rendering="crispEdges"/><rect fill="#272822" x="390.4" y="367.5" width="12.2" height="24.65" shape-rendering="crispEdges"/><rect fill="#272822" x="402.6" y="367.5" width="73.2" height="24.65" shape-rendering="crispEdges"/><rect fill="#272822" x="475.8" y="367.5" width="12.2" height="24.65" shape-rendering="crispEdges"/><rect fill="#272822" x="488" y="367.5" width="48.8" height="24.65" shape-rendering="crispEdges"/><rect fill="#272822" x="536.8" y="367.5" width="12.2" height="24.65" shape-rendering="crispEdges"/><rect fill="#272822" x="549" y="367.5" width="427" height="24.65" shape-rendering="crispEdges"/><rect fill="#272822" x="0" y="391.9" width="24.4" height="24.65" shape-rendering="crispEdges"/><rect fill="#272822" x="24.4" y="391.9" width="36.6" height="24.65" shape-rendering="crispEdges"/><rect fill="#272822" x="61" y="391.9" width="915" height="24.65" shape-rendering="crispEdges"/>
    <g class="terminal-2709800100-matrix">
    <text class="terminal-2709800100-r1" x="0" y="20" textLength="85.4" clip-path="url(#terminal-2709800100-line-0)">(Pdbr)&#160;</text><text class="terminal-2709800100-r2" x="85.4" y="20" textLength="36.6" clip-path="url(#terminal-2709800100-line-0)">syn</text><text class="terminal-2709800100-r2" x="976" y="20" textLength="12.2" clip-path="url(#terminal-2709800100-line-0)">
</text><text class="terminal-2709800100-r2" x="976" y="44.4" textLength="12.2" clip-path="url(#terminal-2709800100-line-1)">
</text><text class="terminal-2709800100-r3" x="24.4" y="68.8" textLength="36.6" clip-path="url(#terminal-2709800100-line-2)">&#160;1&#160;</text><text class="terminal-2709800100-r4" x="61" y="68.8" textLength="36.6" clip-path="url(#terminal-2709800100-line-2)">def</text><text class="terminal-2709800100-r6" x="109.8" y="68.8" textLength="134.2" clip-path="url(#terminal-2709800100-line-2)">compute_tax</text><text class="terminal-2709800100-r5" x="244" y="68.8" textLength="12.2" clip-path="url(#terminal-2709800100-line-2)">(</text><text class="terminal-2709800100-r5" x="256.2" y="68.8" textLength="61" clip-path="url(#terminal-2709800100-line-2)">order</text><text class="terminal-2709800100-r5" x="317.2" y="68.8" textLength="12.2" clip-path="url(#terminal-2709800100-line-2)">)</text><text class="terminal-2709800100-r5" x="329.4" y="68.8" textLength="12.2" clip-path="url(#terminal-2709800100-line-2)">:</text><text class="terminal-2709800100-r2" x="976" y="68.8" textLength="12.2" clip-path="url(#terminal-2709800100-line-2)">
</text><text class="terminal-2709800100-r3" x="24.4" y="93.2" textLength="36.6" clip-path="url(#terminal-2709800100-line-3)">&#160;2&#160;</text><text class="terminal-2709800100-r7" x="109.8" y="93.2" textLength="756.4" clip-path="url(#terminal-2709800100-line-3)">&quot;&quot;&quot;Return&#160;the&#160;tax&#160;owed&#160;on&#160;this&#160;order&#160;based&#160;on&#160;its&#160;currency.&quot;&quot;&quot;</text><text class="terminal-2709800100-r2" x="976" y="93.2" textLength="12.2" clip-path="url(#terminal-2709800100-line-3)">
</text><text class="terminal-2709800100-r3" x="24.4" y="117.6" textLength="36.6" clip-path="url(#terminal-2709800100-line-4)">&#160;3&#160;</text><text class="terminal-2709800100-r5" x="109.8" y="117.6" textLength="48.8" clip-path="url(#terminal-2709800100-line-4)">rate</text><text class="terminal-2709800100-r8" x="170.8" y="117.6" textLength="12.2" clip-path="url(#terminal-2709800100-line-4)">=</text><text class="terminal-2709800100-r5" x="195.2" y="117.6" textLength="109.8" clip-path="url(#terminal-2709800100-line-4)">TAX_RATES</text><text class="terminal-2709800100-r8" x="305" y="117.6" textLength="12.2" clip-path="url(#terminal-2709800100-line-4)">.</text><text class="terminal-2709800100-r5" x="317.2" y="117.6" textLength="36.6" clip-path="url(#terminal-2709800100-line-4)">get</text><text class="terminal-2709800100-r5" x="353.8" y="117.6" textLength="12.2" clip-path="url(#terminal-2709800100-line-4)">(</text><text class="terminal-2709800100-r5" x="366" y="117.6" textLength="61" clip-path="url(#terminal-2709800100-line-4)">order</text><text class="terminal-2709800100-r8" x="427" y="117.6" textLength="12.2" clip-path="url(#terminal-2709800100-line-4)">.</text><text class="terminal-2709800100-r5" x="439.2" y="117.6" textLength="97.6" clip-path="url(#terminal-2709800100-line-4)">currency</text><text class="terminal-2709800100-r5" x="536.8" y="117.6" textLength="12.2" clip-path="url(#terminal-2709800100-line-4)">,</text><text class="terminal-2709800100-r5" x="561.2" y="117.6" textLength="146.4" clip-path="url(#terminal-2709800100-line-4)">DEFAULT_RATE</text><text class="terminal-2709800100-r5" x="707.6" y="117.6" textLength="12.2" clip-path="url(#terminal-2709800100-line-4)">)</text><text class="terminal-2709800100-r2" x="976" y="117.6" textLength="12.2" clip-path="url(#terminal-2709800100-line-4)">
</text><text class="terminal-2709800100-r3" x="24.4" y="142" textLength="36.6" clip-path="url(#terminal-2709800100-line-5)">&#160;4&#160;</text><text class="terminal-2709800100-r4" x="109.8" y="142" textLength="24.4" clip-path="url(#terminal-2709800100-line-5)">if</text><text class="terminal-2709800100-r5" x="146.4" y="142" textLength="61" clip-path="url(#terminal-2709800100-line-5)">order</text><text class="terminal-2709800100-r8" x="207.4" y="142" textLength="12.2" clip-path="url(#terminal-2709800100-line-5)">.</text><text class="terminal-2709800100-r5" x="219.6" y="142" textLength="109.8" clip-path="url(#terminal-2709800100-line-5)">exemption</text><text class="terminal-2709800100-r8" x="341.6" y="142" textLength="24.4" clip-path="url(#terminal-2709800100-line-5)">is</text><text class="terminal-2709800100-r8" x="378.2" y="142" textLength="36.6" clip-path="url(#terminal-2709800100-line-5)">not</text><text class="terminal-2709800100-r4" x="427" y="142" textLength="48.8" clip-path="url(#terminal-2709800100-line-5)">None</text><text class="terminal-2709800100-r5" x="475.8" y="142" textLength="12.2" clip-path="url(#terminal-2709800100-line-5)">:</text><text class="terminal-2709800100-r2" x="976" y="142" textLength="12.2" clip-path="url(#terminal-2709800100-line-5)">
</text><text class="terminal-2709800100-r9" x="0" y="166.4" textLength="24.4" clip-path="url(#terminal-2709800100-line-6)">❱&#160;</text><text class="terminal-2709800100-r2" x="24.4" y="166.4" textLength="36.6" clip-path="url(#terminal-2709800100-line-6)">&#160;5&#160;</text><text class="terminal-2709800100-r4" x="158.6" y="166.4" textLength="73.2" clip-path="url(#terminal-2709800100-line-6)">return</text><text class="terminal-2709800100-r10" x="244" y="166.4" textLength="36.6" clip-path="url(#terminal-2709800100-line-6)">0.0</text><text class="terminal-2709800100-r2" x="976" y="166.4" textLength="12.2" clip-path="url(#terminal-2709800100-line-6)">
</text><text class="terminal-2709800100-r3" x="24.4" y="190.8" textLength="36.6" clip-path="url(#terminal-2709800100-line-7)">&#160;6&#160;</text><text class="terminal-2709800100-r4" x="109.8" y="190.8" textLength="73.2" clip-path="url(#terminal-2709800100-line-7)">return</text><text class="terminal-2709800100-r5" x="195.2" y="190.8" textLength="61" clip-path="url(#terminal-2709800100-line-7)">order</text><text class="terminal-2709800100-r8" x="256.2" y="190.8" textLength="12.2" clip-path="url(#terminal-2709800100-line-7)">.</text><text class="terminal-2709800100-r5" x="268.4" y="190.8" textLength="61" clip-path="url(#terminal-2709800100-line-7)">total</text><text class="terminal-2709800100-r8" x="341.6" y="190.8" textLength="12.2" clip-path="url(#terminal-2709800100-line-7)">*</text><text class="terminal-2709800100-r5" x="366" y="190.8" textLength="48.8" clip-path="url(#terminal-2709800100-line-7)">rate</text><text class="terminal-2709800100-r2" x="976" y="190.8" textLength="12.2" clip-path="url(#terminal-2709800100-line-7)">
</text><text class="terminal-2709800100-r3" x="24.4" y="215.2" textLength="36.6" clip-path="url(#terminal-2709800100-line-8)">&#160;7&#160;</text><text class="terminal-2709800100-r2" x="976" y="215.2" textLength="12.2" clip-path="url(#terminal-2709800100-line-8)">
</text><text class="terminal-2709800100-r3" x="24.4" y="239.6" textLength="36.6" clip-path="url(#terminal-2709800100-line-9)">&#160;8&#160;</text><text class="terminal-2709800100-r2" x="976" y="239.6" textLength="12.2" clip-path="url(#terminal-2709800100-line-9)">
</text><text class="terminal-2709800100-r3" x="24.4" y="264" textLength="36.6" clip-path="url(#terminal-2709800100-line-10)">&#160;9&#160;</text><text class="terminal-2709800100-r4" x="61" y="264" textLength="36.6" clip-path="url(#terminal-2709800100-line-10)">def</text><text class="terminal-2709800100-r6" x="109.8" y="264" textLength="170.8" clip-path="url(#terminal-2709800100-line-10)">apply_discount</text><text class="terminal-2709800100-r5" x="280.6" y="264" textLength="12.2" clip-path="url(#terminal-2709800100-line-10)">(</text><text class="terminal-2709800100-r5" x="292.8" y="264" textLength="61" clip-path="url(#terminal-2709800100-line-10)">order</text><text class="terminal-2709800100-r5" x="353.8" y="264" textLength="12.2" clip-path="url(#terminal-2709800100-line-10)">,</text><text class="terminal-2709800100-r5" x="378.2" y="264" textLength="48.8" clip-path="url(#terminal-2709800100-line-10)">code</text><text class="terminal-2709800100-r5" x="427" y="264" textLength="12.2" clip-path="url(#terminal-2709800100-line-10)">)</text><text class="terminal-2709800100-r5" x="439.2" y="264" textLength="12.2" clip-path="url(#terminal-2709800100-line-10)">:</text><text class="terminal-2709800100-r2" x="976" y="264" textLength="12.2" clip-path="url(#terminal-2709800100-line-10)">
</text><text class="terminal-2709800100-r3" x="24.4" y="288.4" textLength="36.6" clip-path="url(#terminal-2709800100-line-11)">10&#160;</text><text class="terminal-2709800100-r5" x="109.8" y="288.4" textLength="97.6" clip-path="url(#terminal-2709800100-line-11)">discount</text><text class="terminal-2709800100-r8" x="219.6" y="288.4" textLength="12.2" clip-path="url(#terminal-2709800100-line-11)">=</text><text class="terminal-2709800100-r5" x="244" y="288.4" textLength="170.8" clip-path="url(#terminal-2709800100-line-11)">DISCOUNT_CODES</text><text class="terminal-2709800100-r8" x="414.8" y="288.4" textLength="12.2" clip-path="url(#terminal-2709800100-line-11)">.</text><text class="terminal-2709800100-r5" x="427" y="288.4" textLength="36.6" clip-path="url(#terminal-2709800100-line-11)">get</text><text class="terminal-2709800100-r5" x="463.6" y="288.4" textLength="12.2" clip-path="url(#terminal-2709800100-line-11)">(</text><text class="terminal-2709800100-r5" x="475.8" y="288.4" textLength="48.8" clip-path="url(#terminal-2709800100-line-11)">code</text><text class="terminal-2709800100-r5" x="524.6" y="288.4" textLength="12.2" clip-path="url(#terminal-2709800100-line-11)">)</text><text class="terminal-2709800100-r2" x="976" y="288.4" textLength="12.2" clip-path="url(#terminal-2709800100-line-11)">
</text><text class="terminal-2709800100-r3" x="24.4" y="312.8" textLength="36.6" clip-path="url(#terminal-2709800100-line-12)">11&#160;</text><text class="terminal-2709800100-r4" x="109.8" y="312.8" textLength="24.4" clip-path="url(#terminal-2709800100-line-12)">if</text><text class="terminal-2709800100-r5" x="146.4" y="312.8" textLength="97.6" clip-path="url(#terminal-2709800100-line-12)">discount</text><text class="terminal-2709800100-r8" x="256.2" y="312.8" textLength="24.4" clip-path="url(#terminal-2709800100-line-12)">is</text><text class="terminal-2709800100-r4" x="292.8" y="312.8" textLength="48.8" clip-path="url(#terminal-2709800100-line-12)">None</text><text class="terminal-2709800100-r5" x="341.6" y="312.8" textLength="12.2" clip-path="url(#terminal-2709800100-line-12)">:</text><text class="terminal-2709800100-r2" x="976" y="312.8" textLength="12.2" clip-path="url(#terminal-2709800100-line-12)">
</text><text class="terminal-2709800100-r3" x="24.4" y="337.2" textLength="36.6" clip-path="url(#terminal-2709800100-line-13)">12&#160;</text><text class="terminal-2709800100-r4" x="158.6" y="337.2" textLength="61" clip-path="url(#terminal-2709800100-line-13)">raise</text><text class="terminal-2709800100-r5" x="231.8" y="337.2" textLength="231.8" clip-path="url(#terminal-2709800100-line-13)">UnknownDiscountCode</text><text class="terminal-2709800100-r5" x="463.6" y="337.2" textLength="12.2" clip-path="url(#terminal-2709800100-line-13)">(</text><text class="terminal-2709800100-r5" x="475.8" y="337.2" textLength="48.8" clip-path="url(#terminal-2709800100-line-13)">code</text><text class="terminal-2709800100-r5" x="524.6" y="337.2" textLength="12.2" clip-path="url(#terminal-2709800100-line-13)">)</text><text class="terminal-2709800100-r2" x="976" y="337.2" textLength="12.2" clip-path="url(#terminal-2709800100-line-13)">
</text><text class="terminal-2709800100-r3" x="24.4" y="361.6" textLength="36.6" clip-path="url(#terminal-2709800100-line-14)">13&#160;</text><text class="terminal-2709800100-r5" x="109.8" y="361.6" textLength="61" clip-path="url(#terminal-2709800100-line-14)">order</text><text class="terminal-2709800100-r8" x="170.8" y="361.6" textLength="12.2" clip-path="url(#terminal-2709800100-line-14)">.</text><text class="terminal-2709800100-r5" x="183" y="361.6" textLength="61" clip-path="url(#terminal-2709800100-line-14)">total</text><text class="terminal-2709800100-r8" x="256.2" y="361.6" textLength="12.2" clip-path="url(#terminal-2709800100-line-14)">-</text><text class="terminal-2709800100-r8" x="268.4" y="361.6" textLength="12.2" clip-path="url(#terminal-2709800100-line-14)">=</text><text class="terminal-2709800100-r5" x="292.8" y="361.6" textLength="61" clip-path="url(#terminal-2709800100-line-14)">order</text><text class="terminal-2709800100-r8" x="353.8" y="361.6" textLength="12.2" clip-path="url(#terminal-2709800100-line-14)">.</text><text class="terminal-2709800100-r5" x="366" y="361.6" textLength="61" clip-path="url(#terminal-2709800100-line-14)">total</text><text class="terminal-2709800100-r8" x="439.2" y="361.6" textLength="12.2" clip-path="url(#terminal-2709800100-line-14)">*</text><text class="terminal-2709800100-r5" x="463.6" y="361.6" textLength="97.6" clip-path="url(#terminal-2709800100-line-14)">discount</text><text class="terminal-2709800100-r8" x="561.2" y="361.6" textLength="12.2" clip-path="url(#terminal-2709800100-line-14)">.</text><text class="terminal-2709800100-r5" x="573.4" y="361.6" textLength="122" clip-path="url(#terminal-2709800100-line-14)">percentage</text><text class="terminal-2709800100-r2" x="976" y="361.6" textLength="12.2" clip-path="url(#terminal-2709800100-line-14)">
</text><text class="terminal-2709800100-r3" x="24.4" y="386" textLength="36.6" clip-path="url(#terminal-2709800100-line-15)">14&#160;</text><text class="terminal-2709800100-r5" x="109.8" y="386" textLength="61" clip-path="url(#terminal-2709800100-line-15)">order</text><text class="terminal-2709800100-r8" x="170.8" y="386" textLength="12.2" clip-path="url(#terminal-2709800100-line-15)">.</text><text class="terminal-2709800100-r5" x="183" y="386" textLength="207.4" clip-path="url(#terminal-2709800100-line-15)">applied_discounts</text><text class="terminal-2709800100-r8" x="390.4" y="386" textLength="12.2" clip-path="url(#terminal-2709800100-line-15)">.</text><text class="terminal-2709800100-r5" x="402.6" y="386" textLength="73.2" clip-path="url(#terminal-2709800100-line-15)">append</text><text class="terminal-2709800100-r5" x="475.8" y="386" textLength="12.2" clip-path="url(#terminal-2709800100-line-15)">(</text><text class="terminal-2709800100-r5" x="488" y="386" textLength="48.8" clip-path="url(#terminal-2709800100-line-15)">code</text><text class="terminal-2709800100-r5" x="536.8" y="386" textLength="12.2" clip-path="url(#terminal-2709800100-line-15)">)</text><text class="terminal-2709800100-r2" x="976" y="386" textLength="12.2" clip-path="url(#terminal-2709800100-line-15)">
</text><text class="terminal-2709800100-r3" x="24.4" y="410.4" textLength="36.6" clip-path="url(#terminal-2709800100-line-16)">15&#160;</text><text class="terminal-2709800100-r2" x="976" y="410.4" textLength="12.2" clip-path="url(#terminal-2709800100-line-16)">
</text>
    </g>
    </g>
</svg>
